# xmcd
#
# Track frame offsets: 
#        150
#        12711
#        24374
#        38871
#        52094
#        64454
#        78554
#        92384
#        104669
#        117449
#        132299
#        152811
#        173751
#        188421
#        202746
#        214491
#        228501
#        241799
#        254301
#        267494
#        281279
#        297119
#        311369
#        326564
#        340716
#
# Disc length: 4733 seconds
#
# Revision: 1
# Processed by: cddbd v1.5.2PL0 Copyright (c) Steve Scherf et al.
# Submitted via: ExactAudioCopy v1.0b3
#
DISCID=66127b19
DTITLE=Muggsy Spanier - The Essential Collection - Disc 1
DYEAR=1954
DGENRE=Jazz
TTITLE0=Really A Pain - The Bucktown Five
TTITLE1=Steady Roll Blues - The Bucktown Five
TTITLE2=I've Found A New Baby - Chicago Rhythm Kings
TTITLE3=There'll Be Some Changes Made - Chicago Rhythm Kings
TTITLE4=The Lonesome Road - Ted Lewis and His Band
TTITLE5=Dip Your Brush In The Sunshine - Ted Lewis and His Band
TTITLE6=The Big Butter And Egg Man - Muggsy Spanier and His Ragtime Band
TTITLE7=Someday, Sweetheart - Muggsy Spanier and His Ragtime Band
TTITLE8=At The Jazz Band Ball - Muggsy Spanier and His Ragtime Band
TTITLE9=Relaxin' At The Touro - Muggsy Spanier and His Ragtime Band
TTITLE10=Down To Steamboat Tennessee - Lee Wiley
TTITLE11=Sugar - Lee Wiley
TTITLE12=Little David, Play Your Harp - Muggsy Spanier and His Orchestra
TTITLE13=Can't We Be Friends? - Muggsy Spanier and His Orchestra
TTITLE14=Chicago - Muggsy Spanier and His Orchestra
TTITLE15=Hesitating Blues - Muggsy Spanier and His Ragtimers
TTITLE16=The Wreck Of The Old '97 - Muggsy Spanier and His Orchestra
TTITLE17=American Patrol - Muggsy Spanier and His Orchestra
TTITLE18=Two O'Clock Jump - Muggsy Spanier and His Orchestra
TTITLE19=More Than You Know - Muggsy Spanier and His Orchestra
TTITLE20=Oh, Lady Be Good! - Muggsy Spanier and His Ragtimers
TTITLE21=Riverside Blues - Muggsy Spanier and His Ragtimers
TTITLE22=Rosetta - Muggsy Spanier and His Ragtimers
TTITLE23=The Lady's In Love With You - Muggsy Spanier and His Ragtimers
TTITLE24=Whistlin' The Blues - Muggsy Spanier and His Ragtimers
EXTD=
EXTT0=
EXTT1=
EXTT2=
EXTT3=
EXTT4=
EXTT5=
EXTT6=
EXTT7=
EXTT8=
EXTT9=
EXTT10=
EXTT11=
EXTT12=
EXTT13=
EXTT14=
EXTT15=
EXTT16=
EXTT17=
EXTT18=
EXTT19=
EXTT20=
EXTT21=
EXTT22=
EXTT23=
EXTT24=
PLAYORDER=
